<svg xmlns="http://www.w3.org/2000/svg" viewBox="0 0 1054.75 81.99"><defs><style>.cls-1{fill:#22b573;opacity:0.3;}.cls-11,.cls-2{font-size:17.05px;font-family:Montserrat-Medium, Montserrat;font-weight:500;}.cls-11,.cls-2,.cls-5{fill:#fff;}.cls-14,.cls-2{letter-spacing:0.02em;}.cls-11,.cls-3{letter-spacing:0.02em;}.cls-4{letter-spacing:0.02em;}.cls-5{font-size:15.35px;font-family:Montserrat-Light, Montserrat;font-weight:300;}.cls-6{letter-spacing:-0.02em;}.cls-7{letter-spacing:0.01em;}.cls-8{letter-spacing:0.01em;}.cls-9{letter-spacing:-0.01em;}.cls-10{letter-spacing:0em;}.cls-12{letter-spacing:0.01em;}.cls-13{letter-spacing:0.03em;}.cls-15{fill:none;stroke:#fff;stroke-miterlimit:10;}</style></defs><g id="Capa_2" data-name="Capa 2"><g id="Capa_1-2" data-name="Capa 1"><rect class="cls-1" x="174.32" y="42.28" width="290.23" height="38.79"/><text class="cls-2" transform="translate(18.66 28.71)">UNI<tspan class="cls-3" x="33.9" y="0">D</tspan><tspan class="cls-4" x="48.24" y="0">AD</tspan></text><text class="cls-2" transform="translate(241.68 28.71)">DISPONIBILI<tspan class="cls-3" x="114.02" y="0">D</tspan><tspan x="128.36" y="0">AD</tspan></text><text class="cls-2" transform="translate(549.54 28.71)">M2</text><text class="cls-2" transform="translate(700.21 28.71)">TERRAZA M2</text><text class="cls-5" transform="translate(18.66 69.63)">A<tspan class="cls-6" x="10.82" y="0">L</tspan><tspan class="cls-7" x="19.55" y="0">-</tspan><tspan x="25.54" y="0">05</tspan></text><text class="cls-5" transform="translate(270.72 69.63)">Disponible</text><text class="cls-5" transform="translate(539.53 69.63)">8<tspan class="cls-8" x="9.7" y="0">6</tspan><tspan class="cls-9" x="19.09" y="0">.</tspan><tspan class="cls-10" x="21.99" y="0">00</tspan></text><text class="cls-5" transform="translate(735.21 69.63)">31.50</text><text class="cls-11" transform="translate(876.47 28.71)">A<tspan class="cls-12" x="12.74" y="0">C</tspan><tspan class="cls-13" x="25.24" y="0">ONDICIONA</tspan><tspan x="134.87" y="0">D</tspan><tspan class="cls-14" x="149.21" y="0">A</tspan></text><text class="cls-5" transform="translate(947.65 69.63)">Si</text><rect class="cls-15" x="0.5" y="0.5" width="1053.75" height="80.99"/><line class="cls-15" x1="0.07" y1="41.85" x2="1054.25" y2="41.85"/><line class="cls-15" x1="174.32" y1="0.93" x2="174.32" y2="81.07"/><line class="cls-15" x1="464.55" y1="1.05" x2="464.55" y2="81.07"/><line class="cls-15" x1="650.9" y1="1.05" x2="650.9" y2="81.07"/><line class="cls-15" x1="864.36" y1="1.05" x2="864.36" y2="81.07"/></g></g></svg>