<svg id="Layer_1" data-name="Layer 1" xmlns="http://www.w3.org/2000/svg" viewBox="0 0 70.98 89.74"><defs><style>.cls-1{fill:#183e53;}</style></defs><g id="aujltC.tif"><path class="cls-1" d="M117.53,225.44c-1.4-1.48-2.69-2.82-3.93-4.21a.86.86,0,0,0-1.07-.31,17.34,17.34,0,0,1-1.85.6,4.67,4.67,0,0,1-5.57-2.71c-.63-1.4-1.21-2.83-1.75-4.27a4.41,4.41,0,0,1,2.33-5.67c1.77-.68,2.26-1.59,2-3.37a25.69,25.69,0,0,1,0-4c-.33-.13-.84-.33-1.35-.55-2.92-1.2-4-3.64-2.76-6.56.51-1.27,1-2.55,1.56-3.77a4.64,4.64,0,0,1,6.27-2.36c1.58.67,1.56.64,2.72-.55.94-.94,1.92-1.85,2.94-2.71a.81.81,0,0,0,.28-1.11c-.46-1.2-1.13-2.37-.81-3.75a4.75,4.75,0,0,1,2.94-3.64c1.23-.5,2.46-1,3.7-1.5a4.58,4.58,0,0,1,6.18,2.55c.59,1.47,1.26,2.16,2.95,1.84a13.78,13.78,0,0,1,3.45.06c.61,0,1-.07,1.18-.72a8.13,8.13,0,0,1,.54-1.21,4.7,4.7,0,0,1,6.15-2.54c1.33.5,2.65,1,4,1.6a4.64,4.64,0,0,1,2.56,5.84c-.24.7-.55,1.37-.76,1.92l4.69,4.3-.34.44,1.61-.71a4.65,4.65,0,0,1,6.28,2.34c.68,1.47,1.29,3,1.84,4.51a4.65,4.65,0,0,1-2.44,5.59c-.66.31-1.58.48-1.9,1s.07,1.37.07,2.07c0,1.19-.11,2.37-.1,3.55a1.06,1.06,0,0,0,.44.78c.49.31,1.07.48,1.6.75a4.56,4.56,0,0,1,2.28,6c-.48,1.24-1,2.48-1.49,3.71a4.6,4.6,0,0,1-6,2.75c-1.68-.7-2.66-.49-3.72,1a23.16,23.16,0,0,1-2.94,2.8l.7,1.64a4.65,4.65,0,0,1-2.59,6.36c-1.2.49-2.4,1-3.62,1.46a4.58,4.58,0,0,1-6.16-2.43c-.6-1.35-1.27-2-2.87-1.74a28.23,28.23,0,0,1-3.9,0,1,1,0,0,0-.71.43c-.32.55-.53,1.18-.83,1.76a4.67,4.67,0,0,1-5.81,2.32c-1.42-.51-2.82-1.07-4.19-1.71a4.56,4.56,0,0,1-2.32-6.18C117.09,226.45,117.33,225.88,117.53,225.44ZM107.4,196.57l3.54,1.47a2.4,2.4,0,0,1,1.57,2.92,21.81,21.81,0,0,0-.05,7.43c.3,1.86,0,2.53-1.77,3.24L107.4,213l1.76,4.31,3.44-1.42a2.34,2.34,0,0,1,3.3,1,21.15,21.15,0,0,0,5.45,5.43,2.33,2.33,0,0,1,.89,3.17c-.38.94-.74,1.88-1.15,2.79-.22.51-.2.8.39,1,1,.37,2,.79,3,1.23.48.21.7.08.87-.37.4-1,.82-2,1.26-3a2.28,2.28,0,0,1,2.71-1.47,23.08,23.08,0,0,0,7.69,0c1.68-.28,2.5.24,3.18,1.85l1.35,3.23,4.31-1.76-1.42-3.46a2.31,2.31,0,0,1,.9-3.24,21.46,21.46,0,0,0,5.5-5.5,2.33,2.33,0,0,1,3.1-.91c1,.4,2,.83,3,1.2.21.08.67,0,.73-.11.57-1.29,1.08-2.6,1.63-4l-3.39-1.4a2.38,2.38,0,0,1-1.69-3,23.08,23.08,0,0,0,0-7.69,2.23,2.23,0,0,1,1.57-2.87c1.14-.49,2.28-1,3.53-1.48l-1.73-4.23a1.64,1.64,0,0,0-.32,0l-3,1.21c-1.76.72-2.51.51-3.63-1.06a20.46,20.46,0,0,0-5.13-5.12,2.41,2.41,0,0,1-1-3.43l1.37-3.38c-1.33-.54-2.56-1-3.79-1.55-.46-.2-.63,0-.79.39q-.57,1.45-1.17,2.88a2.43,2.43,0,0,1-3,1.62,21.5,21.5,0,0,0-7.42,0c-1.7.28-2.48-.13-3.14-1.71l-1.39-3.38c-1.32.54-2.55,1-3.79,1.53-.46.18-.46.44-.3.83.42,1,.82,2,1.22,3a2.2,2.2,0,0,1-.86,3.08,21.85,21.85,0,0,0-5.58,5.56,2.32,2.32,0,0,1-3.17.88c-1-.39-1.91-.82-2.89-1.15a.85.85,0,0,0-.8.27C108.41,194,107.94,195.24,107.4,196.57Z" transform="translate(-97.83 -159.92)"/><path class="cls-1" d="M161.14,175.32c-1.7-1.33-3.17-2.61-4.76-3.71a40.51,40.51,0,0,0-51.22,4.14,4,4,0,0,1-1.46.95,2.1,2.1,0,0,1-2.5-1,2.26,2.26,0,0,1,.5-2.77c1.75-1.54,3.47-3.15,5.36-4.51a45.06,45.06,0,0,1,56.35,3l1,.84c0-1.31,0-2.44,0-3.58a2.19,2.19,0,0,1,4.26-.7,3.09,3.09,0,0,1,.15,1q0,4.28,0,8.54a2.17,2.17,0,0,1-2.26,2.43c-3,.07-5.93.07-8.89,0a2.15,2.15,0,0,1-2.22-2.36,2.19,2.19,0,0,1,2.43-2c.95,0,1.89,0,2.84,0Z" transform="translate(-97.83 -159.92)"/><path class="cls-1" d="M102.3,237.34c0,1.26,0,2.28,0,3.31a2.23,2.23,0,1,1-4.44.11c0-2.91,0-5.81,0-8.72a2.21,2.21,0,0,1,2.46-2.32h8.45a2.23,2.23,0,1,1,.12,4.44c-.5,0-1,0-1.51,0a4.57,4.57,0,0,0-1.55.19c.67.6,1.33,1.21,2,1.78A38.91,38.91,0,0,0,130,245.05c12.32.93,22.88-3.05,31.77-11.57a2.39,2.39,0,0,1,2.51-.69,2,2,0,0,1,1.44,1.64,2.27,2.27,0,0,1-.74,2.17,45.06,45.06,0,0,1-10.6,7.85,45.1,45.1,0,0,1-51-6.21Z" transform="translate(-97.83 -159.92)"/><path class="cls-1" d="M120,204.61a13.28,13.28,0,0,1,13.47-13.22A13.4,13.4,0,1,1,120,204.61Zm13.13,9a8.92,8.92,0,1,0-8.68-9.35A9,9,0,0,0,133.1,213.64Z" transform="translate(-97.83 -159.92)"/></g></svg>