<svg id="Layer_1" data-name="Layer 1" xmlns="http://www.w3.org/2000/svg" viewBox="0 0 82.39 74.38"><defs><style>.cls-1{fill:#183e53;}</style></defs><g id="vGpUm8.tif"><path class="cls-1" d="M104.18,203.52c2-1,4.07-1.94,6.1-2.93q18.15-8.85,36.29-17.75a2.25,2.25,0,0,1,2.22,0q12.06,6,24.13,12c.67.33,1.28.67,1.26,1.53s-.62,1.15-1.24,1.47c-4.94,2.56-9.87,5.14-14.82,7.68-.61.32-.94.64-.84,1.36a12,12,0,0,1,0,1.61l.84-.4L171.83,201a6.23,6.23,0,0,1,.78-.38,1.33,1.33,0,0,1,1.68.64,1.27,1.27,0,0,1-.37,1.69,4.33,4.33,0,0,1-.81.48q-7.55,3.93-15.09,7.84c-.52.26-.81.54-.74,1.18a17.38,17.38,0,0,1,0,1.93l.82-.4,13.75-7.17a4.65,4.65,0,0,1,.85-.39,1.31,1.31,0,0,1,1.59.7,1.33,1.33,0,0,1-.4,1.69,6.93,6.93,0,0,1-.75.43c-5,2.62-10.1,5.26-15.16,7.86a1.07,1.07,0,0,0-.71,1.21c.05.51,0,1,0,1.7.33-.16.58-.26.82-.39l13.48-7,.63-.33a1.4,1.4,0,1,1,1.26,2.45l-14.8,7.72Q140.28,232,121.88,241.6a2.58,2.58,0,0,1-2.58.05q-12.94-6.33-25.92-12.59c-1-.48-1.38-1-1.26-1.69A1.32,1.32,0,0,1,94,226.31c.77.31,1.52.69,2.28,1.06q11.79,5.7,23.58,11.43a1.4,1.4,0,0,0,1.44,0q8.34-4.35,16.69-8.66a1.15,1.15,0,0,0,.74-1.28c-.05-.51,0-1,0-1.65l-.86.42q-8.16,4.26-16.33,8.53a1.85,1.85,0,0,1-1.85,0q-13.15-6.43-26.34-12.82c-1-.49-1.34-1-1.11-1.8a1.27,1.27,0,0,1,1.77-.91,6.58,6.58,0,0,1,.72.32l25.21,12.23a1.26,1.26,0,0,0,1.3,0q8.35-4.39,16.74-8.73a1.13,1.13,0,0,0,.76-1.26c-.06-.56,0-1.14,0-1.83l-.84.41c-5.35,2.79-10.71,5.56-16.05,8.38a2.44,2.44,0,0,1-2.44.05q-12.95-6.34-25.91-12.62a3.75,3.75,0,0,1-.86-.53,1.22,1.22,0,0,1-.23-1.7,1.18,1.18,0,0,1,1.55-.56c.8.32,1.58.72,2.36,1.1q11.82,5.73,23.64,11.48a1.26,1.26,0,0,0,1.3,0q8.36-4.38,16.75-8.72a1.15,1.15,0,0,0,.74-1.27c-.05-.52,0-1,0-1.65-.32.15-.56.25-.78.37-5.38,2.8-10.76,5.58-16.12,8.41a2.34,2.34,0,0,1-2.36,0q-13-6.36-26.07-12.65l-.28-.14a1.5,1.5,0,0,1-1-1.32,1.48,1.48,0,0,1,1-1.39l6.58-3.22c1.4-.69,2.8-1.41,4.21-2.12ZM137,213.38c-7.67-3.78-15.21-7.49-22.76-11.19a1.29,1.29,0,0,0-.94.07c-1.54.72-3.07,1.48-4.6,2.23l-12,5.86a2.94,2.94,0,0,0,.3.18q11.57,5.61,23.15,11.2a1.16,1.16,0,0,0,.91-.06q7.69-4,15.37-7.95Zm32.76-17-.27-.17q-10.65-5.25-21.31-10.49a1.42,1.42,0,0,0-1.07,0q-6.52,3.14-13,6.33c-.23.11-.44.24-.73.4a1.68,1.68,0,0,0,.3.22q10.9,5.35,21.83,10.71a.88.88,0,0,0,.71,0C160.65,201.07,165.14,198.73,169.71,196.36Zm-17,8.86a1.93,1.93,0,0,0-.24-.17q-11-5.42-21.94-10.8a1.27,1.27,0,0,0-1,.07c-2.94,1.4-5.85,2.84-8.77,4.26L117,200.42c.16.1.24.16.34.21q11.14,5.49,22.31,11a1.29,1.29,0,0,0,1-.07c3.8-2,7.59-3.93,11.38-5.9Zm1.86,2.23a4.42,4.42,0,0,0-.51.19q-6,3.15-12.07,6.27c-.5.26-.49.61-.49,1v13.28c.36-.18.59-.28.81-.4,3.86-2,7.72-4,11.59-6a1.1,1.1,0,0,0,.69-1.15c0-4.12,0-8.24,0-12.36Z" transform="translate(-92.08 -167.59)"/><path class="cls-1" d="M116,167.59c5.08,0,9.27.49,13.28,2a14.68,14.68,0,0,1,5.22,3.13,5.4,5.4,0,0,1,0,8.26,16.36,16.36,0,0,1-7.47,3.84,40.41,40.41,0,0,1-21.08-.21A15.39,15.39,0,0,1,99.2,181a5.4,5.4,0,0,1,0-8.36,17.28,17.28,0,0,1,8-3.93,31.21,31.21,0,0,1,4.17-.77C113.18,167.74,115,167.67,116,167.59Zm.89,15.8a36.66,36.66,0,0,0,10.66-1.63,12.64,12.64,0,0,0,5.21-3,2.39,2.39,0,0,0,.12-3.64,9.64,9.64,0,0,0-2.31-1.85,22.33,22.33,0,0,0-8-2.46,37.87,37.87,0,0,0-15.14.73,15.07,15.07,0,0,0-6,2.82c-1.88,1.54-1.94,3.37,0,4.88a15,15,0,0,0,3.36,2C108.58,182.88,112.63,183.26,116.9,183.39Z" transform="translate(-92.08 -167.59)"/><path class="cls-1" d="M116.82,191a41.39,41.39,0,0,1-14.3-2.32,8.92,8.92,0,0,1-4.66-3.31,1.5,1.5,0,0,1,.12-2.12,1.42,1.42,0,0,1,2.14.57,6.91,6.91,0,0,0,3.69,2.4,35,35,0,0,0,9.79,1.82,47,47,0,0,0,13.53-1,20,20,0,0,0,4.34-1.57,8.25,8.25,0,0,0,2.18-1.84,1.54,1.54,0,0,1,1.88-.47,1.38,1.38,0,0,1,.47,1.92,7.6,7.6,0,0,1-3.8,3.18,31.56,31.56,0,0,1-10.12,2.43C120.33,190.86,118.57,190.92,116.82,191Z" transform="translate(-92.08 -167.59)"/><path class="cls-1" d="M114.91,196.11a37.59,37.59,0,0,1-12.56-2.23,10,10,0,0,1-3.95-2.52,5.46,5.46,0,0,1-.85-1.31,1.2,1.2,0,0,1,.51-1.57,1.15,1.15,0,0,1,1.65.1c2.31,3.09,5.82,3.58,9.2,4.17a75.31,75.31,0,0,0,7.67.66c1,.08,1.64.55,1.63,1.42a1.47,1.47,0,0,1-1.73,1.39Z" transform="translate(-92.08 -167.59)"/><path class="cls-1" d="M107.9,200.11a24.08,24.08,0,0,1-8.06-2.4,8.34,8.34,0,0,1-2.17-2,1.28,1.28,0,0,1,.35-1.81,1.34,1.34,0,0,1,1.79.18,6.74,6.74,0,0,0,3.74,2.16c1.55.45,3.15.74,4.74,1.09.91.19,1.38.74,1.28,1.57S108.87,200.15,107.9,200.11Z" transform="translate(-92.08 -167.59)"/><path class="cls-1" d="M104.18,203.52l-.32.15a10.48,10.48,0,0,1-5.52-2.06,2.15,2.15,0,0,1-.83-1.33,1.56,1.56,0,0,1,.68-1.26,1.51,1.51,0,0,1,1.42.07,8.25,8.25,0,0,0,3.73,1.73C105,201.27,105.27,202.27,104.18,203.52Z" transform="translate(-92.08 -167.59)"/><path class="cls-1" d="M131.33,206c-.85-.13-1.84,0-2.22-.93s.3-1.57.9-2.11a13.4,13.4,0,0,1,8.4-3.51c.81-.05,1.79-.05,2.17.9s-.3,1.56-.89,2.1A13.92,13.92,0,0,1,131.33,206Z" transform="translate(-92.08 -167.59)"/></g></svg>