<svg id="Layer_3" data-name="Layer 3" xmlns="http://www.w3.org/2000/svg" viewBox="0 0 125.36 94"><defs><style>.cls-1{fill:#fff;}</style></defs><path class="cls-1" d="M377.81,209.67,367.52,194h6.11l6.73,10.9,6.8-10.9H393l-10.28,15.65v11.72h-4.87Z" transform="translate(-367.52 -127.39)"/><path class="cls-1" d="M405.32,194h4.22l11.79,27.37h-5.57l-2.55-6.27H401.34l-2.47,6.27h-5.45ZM411.51,211l-4.21-11.13L403,211Z" transform="translate(-367.52 -127.39)"/><path class="cls-1" d="M428.35,194h7.43l7.3,19.17L450.46,194h7.35v27.37h-4.64V198.66h-.08l-8.31,22.73h-3.4l-8.31-22.73H433v22.73h-4.64Z" transform="translate(-367.52 -127.39)"/><path class="cls-1" d="M476.88,194h4.21l11.79,27.37h-5.57l-2.55-6.27H472.9l-2.48,6.27H465ZM483.06,211l-4.21-11.13L474.56,211Z" transform="translate(-367.52 -127.39)"/><path class="cls-1" d="M436.11,127.39h0l-5.91,11.22-5.9-11.22H404.41l16.13,30.66v17.51h19.32V158.05L456,127.39Zm-13.38,25.43-11.08-21.07h10l6.08,11.55Zm12.77,18.37H424.91V158.05L430.2,148l5.3,10.06Zm2.18-18.37-5-9.52,6.07-11.55h10Z" transform="translate(-367.52 -127.39)"/></svg>