<svg id="Layer_1" data-name="Layer 1" xmlns="http://www.w3.org/2000/svg" viewBox="0 0 173.09 44"><defs><style>.cls-1{fill:#353535}</style></defs><path class="cls-1" d="M134.26,151.38l-9.11-13.87h5.42l6,9.66,6-9.66h5.14l-9.11,13.87v10.38h-4.32Z" transform="translate(-63.12 -127.67)"/><path class="cls-1" d="M158.64,137.51h3.73l10.45,24.25h-4.93l-2.26-5.55H155.11l-2.19,5.55h-4.83Zm5.48,15-3.73-9.86-3.8,9.86Z" transform="translate(-63.12 -127.67)"/><path class="cls-1" d="M179.05,137.51h6.57l6.47,17,6.54-17h6.51v24.25H201V141.62H201l-7.36,20.14h-3l-7.37-20.14h-.07v20.14h-4.1Z" transform="translate(-63.12 -127.67)"/><path class="cls-1" d="M222,137.51h3.74l10.44,24.25h-4.93L229,156.21H218.51l-2.2,5.55h-4.82Zm5.48,15-3.73-9.86-3.8,9.86Z" transform="translate(-63.12 -127.67)"/><path class="cls-1" d="M92.08,127.67h0l-5.39,10.25-5.39-10.25H63.12l14.74,28v16H95.5v-16l14.74-28ZM79.86,150.9,69.73,131.65h9.15l5.55,10.55Zm11.66,16.78H81.85v-12l4.83-9.19,4.84,9.19Zm2-16.78-4.57-8.7,5.54-10.55h9.15Z" transform="translate(-63.12 -127.67)"/></svg>