<svg id="Layer_1" data-name="Layer 1" xmlns="http://www.w3.org/2000/svg" viewBox="0 0 121.56 196.04"><defs><style>.cls-1{fill:#4f4f50;}</style></defs><path class="cls-1" d="M99.85,112.25,90,97.26h5.85l6.44,10.44,6.52-10.44h5.55l-9.85,15v11.22H99.85Z" transform="translate(-88.89 -51.65)"/><path class="cls-1" d="M126.2,97.26h4l11.29,26.21H136.2l-2.45-6H122.39l-2.37,6H114.8Zm5.93,16.21-4-10.66L124,113.47Z" transform="translate(-88.89 -51.65)"/><path class="cls-1" d="M148.26,97.26h7.11l7,18.36,7.07-18.36h7v26.21H172V101.7H172l-8,21.77h-3.26l-7.95-21.77h-.08v21.77h-4.44Z" transform="translate(-88.89 -51.65)"/><path class="cls-1" d="M194.73,97.26h4l11.29,26.21h-5.33l-2.45-6H190.92l-2.37,6h-5.22Zm5.92,16.21-4-10.66-4.11,10.66Z" transform="translate(-88.89 -51.65)"/><path class="cls-1" d="M163.58,134.18h0l-13.9,26.44-13.91-26.44H88.89l38,72.25v41.26h45.51V206.43l38-72.25Zm-31.53,59.94-26.11-49.66h23.61l14.31,27.21Zm30.09,43.28H137.2v-31l12.47-23.71,12.47,23.71Zm5.14-43.28-11.8-22.45,14.31-27.21h23.6Z" transform="translate(-88.89 -51.65)"/><path class="cls-1" d="M113.9,61.51l-.13.18a8.69,8.69,0,0,0-3.39-2.77,10.37,10.37,0,0,0-4.47-1,10.53,10.53,0,0,0-4,.75,8.78,8.78,0,0,0-3.08,2.1,9.07,9.07,0,0,0-2,3.22A12,12,0,0,0,96.18,68a11.31,11.31,0,0,0,.76,4.15A8.76,8.76,0,0,0,102,77.36a10.21,10.21,0,0,0,3.88.71,10.1,10.1,0,0,0,5-1.29,8.61,8.61,0,0,0,3.44-3.35l6.24,1.65a16.39,16.39,0,0,1-2.45,3.75,15.81,15.81,0,0,1-3.35,2.86,15.16,15.16,0,0,1-4.1,1.83,16.36,16.36,0,0,1-4.69.67A17.48,17.48,0,0,1,99.67,83a16,16,0,0,1-5.14-3.35,15.64,15.64,0,0,1-3.48-5.18,17.51,17.51,0,0,1,0-13.12,15.34,15.34,0,0,1,3.48-5.18,16.06,16.06,0,0,1,5.17-3.35,16.58,16.58,0,0,1,6.3-1.2,16.38,16.38,0,0,1,8.39,2.23,15.62,15.62,0,0,1,5.8,6Z" transform="translate(-88.89 -51.65)"/><path class="cls-1" d="M147.24,77.67v5.8H125.6V52.23h6.2V77.67Z" transform="translate(-88.89 -51.65)"/><path class="cls-1" d="M178.13,52.23l0,17.72a18.42,18.42,0,0,1-.94,6.07,12.11,12.11,0,0,1-2.68,4.46,11.25,11.25,0,0,1-4.24,2.72,17.75,17.75,0,0,1-11.16,0,11.25,11.25,0,0,1-4.24-2.72A12.11,12.11,0,0,1,152.15,76a18.68,18.68,0,0,1-.94-6.12V52.23h6.21V69.81c0,2.9.62,5,1.83,6.43a6.84,6.84,0,0,0,5.44,2.05,6.72,6.72,0,0,0,5.36-2.05c1.21-1.38,1.83-3.53,1.83-6.43V52.23Z" transform="translate(-88.89 -51.65)"/><path class="cls-1" d="M197.85,52.36l-.13.13a11.5,11.5,0,0,1,3.79.63,9.16,9.16,0,0,1,3,1.7,7.08,7.08,0,0,1,1.91,2.54,7.54,7.54,0,0,1,.67,3.17,5.66,5.66,0,0,1-.4,2.14,8,8,0,0,1-1,1.83,7.64,7.64,0,0,1-1.34,1.38,4,4,0,0,1-1.56.81v0a7.33,7.33,0,0,1,2.23.94,9,9,0,0,1,2,1.7,8.67,8.67,0,0,1,1.38,2.27,6.53,6.53,0,0,1,.53,2.59,10.15,10.15,0,0,1-.66,3.66,8.14,8.14,0,0,1-2,3,9.38,9.38,0,0,1-3.4,2,14.48,14.48,0,0,1-4.82.67H184.91V52.36Zm-.44,25.84,0,.09a5.16,5.16,0,0,0,3.57-1.2,4.09,4.09,0,0,0,1.34-3.21,4,4,0,0,0-1.43-3.22,5.32,5.32,0,0,0-3.57-1.2h-6.29V78.2Zm-.81-13.43v0a4.47,4.47,0,0,0,3.13-1.07,3.32,3.32,0,0,0,1.2-2.59,3.18,3.18,0,0,0-1.2-2.54,4.7,4.7,0,0,0-3.13-1h-5.49v7.19Z" transform="translate(-88.89 -51.65)"/></svg>