<svg id="Layer_3" data-name="Layer 3" xmlns="http://www.w3.org/2000/svg" xmlns:xlink="http://www.w3.org/1999/xlink" viewBox="0 0 1183.89 3489.72"><defs><style>.cls-1,.cls-10,.cls-11,.cls-12,.cls-2,.cls-3,.cls-4,.cls-5,.cls-6,.cls-7,.cls-8,.cls-9{fill:none;stroke-miterlimit:10;}.cls-1{stroke:url(#linear-gradient);}.cls-2{stroke:url(#linear-gradient-2);}.cls-3{stroke:url(#linear-gradient-3);}.cls-4{stroke:url(#linear-gradient-4);}.cls-5{stroke:url(#linear-gradient-5);}.cls-6{stroke:url(#linear-gradient-6);}.cls-7{stroke:url(#linear-gradient-7);}.cls-8{stroke:url(#linear-gradient-8);}.cls-9{stroke:url(#linear-gradient-9);}.cls-10{stroke:url(#linear-gradient-10);}.cls-11{stroke:url(#linear-gradient-11);}.cls-12{stroke:url(#linear-gradient-12);}</style><linearGradient id="linear-gradient" x1="630.07" y1="497.47" x2="836.53" y2="497.47" gradientUnits="userSpaceOnUse"><stop offset="0" stop-color="#173d53"/><stop offset="1" stop-color="#778080"/></linearGradient><linearGradient id="linear-gradient-2" x1="630.12" y1="196.07" x2="1038.88" y2="196.07" xlink:href="#linear-gradient"/><linearGradient id="linear-gradient-3" x1="427.72" y1="196.07" x2="836.47" y2="196.07" xlink:href="#linear-gradient"/><linearGradient id="linear-gradient-4" x1="280.13" y1="2453.93" x2="565.7" y2="2453.93" xlink:href="#linear-gradient"/><linearGradient id="linear-gradient-5" x1="280.19" y1="2036.63" x2="845.83" y2="2036.63" xlink:href="#linear-gradient"/><linearGradient id="linear-gradient-6" x1="0" y1="2036.63" x2="565.64" y2="2036.63" xlink:href="#linear-gradient"/><linearGradient id="linear-gradient-7" x1="576.07" y1="1268.56" x2="782.53" y2="1268.56" xlink:href="#linear-gradient"/><linearGradient id="linear-gradient-8" x1="373.72" y1="1569.96" x2="782.47" y2="1569.96" xlink:href="#linear-gradient"/><linearGradient id="linear-gradient-9" x1="576.12" y1="1569.96" x2="984.88" y2="1569.96" xlink:href="#linear-gradient"/><linearGradient id="linear-gradient-10" x1="565.14" y1="2754.85" x2="877.45" y2="2754.85" xlink:href="#linear-gradient"/><linearGradient id="linear-gradient-11" x1="258.71" y1="3200.11" x2="877.39" y2="3200.11" xlink:href="#linear-gradient"/><linearGradient id="linear-gradient-12" x1="565.2" y1="3200.11" x2="1183.89" y2="3200.11" xlink:href="#linear-gradient"/></defs>
<polyline class="cls-4" points="565.2 2307.82 565.2 2599.53 280.63 2599.53 280.63 2307.82"/>
<polyline class="cls-5" points="565.2 2307.82 845.01 1765.71 560.35 1765.71 280.63 2307.82"/>
<polyline class="cls-6" points="280.63 2307.82 0.82 1765.71 285.45 1765.71 565.2 2307.82"/>
<polyline class="cls-7" points="576.57 1374.12 576.57 1163.5 782.03 1163.5 782.03 1374.12"/>
<polyline class="cls-8" points="576.57 1374.12 374.54 1765.53 580.07 1765.53 782.03 1374.12"/>
<polyline class="cls-9" points="782.03 1374.12 984.06 1765.53 778.55 1765.53 576.57 1374.12"/>
<polyline class="cls-10" points="565.64 2910.74 565.64 2599.47 876.95 2599.47 876.95 2910.74"/>
<polyline class="cls-11" points="565.64 2910.74 259.54 3489.22 570.95 3489.22 876.95 2910.74"/>
<polyline class="cls-12" points="876.95 2910.74 1183.06 3489.22 871.68 3489.22 565.64 2910.74"/></svg>