<svg xmlns="http://www.w3.org/2000/svg" viewBox="0 0 1055.17 84.52"><defs><style>.cls-1{fill:#22b573;opacity:0.3;}.cls-2,.cls-4{font-size:17.05px;font-family:Montserrat-Medium, Montserrat;font-weight:500;}.cls-2,.cls-4,.cls-8{fill:#fff;}.cls-2,.cls-5{letter-spacing:0.02em;}.cls-3{letter-spacing:0.03em;}.cls-4,.cls-7{letter-spacing:0.02em;}.cls-6{letter-spacing:0.01em;}.cls-8{font-size:15.35px;font-family:Montserrat-Light, Montserrat;font-weight:300;}.cls-9{letter-spacing:-0.01em;}.cls-10{fill:none;stroke:#fff;stroke-miterlimit:10;}</style></defs><g id="Capa_2" data-name="Capa 2"><g id="Capa_1-2" data-name="Capa 1"><rect class="cls-1" x="174.75" y="42.28" width="290.23" height="41.74"/><text class="cls-2" transform="translate(19.08 28.71)">P<tspan class="cls-3" x="12.57" y="0">ISO</tspan></text><text class="cls-4" transform="translate(240.57 28.71)">DISPONIBILI<tspan class="cls-5" x="114.02" y="0">D</tspan><tspan x="128.36" y="0">AD</tspan></text><text class="cls-4" transform="translate(547.41 28.71)">M2</text><text class="cls-4" transform="translate(704.05 28.71)">TERRAZA M2</text><text class="cls-2" transform="translate(878.78 28.71)">A<tspan class="cls-6" x="12.74" y="0">C</tspan><tspan class="cls-3" x="25.24" y="0">ONDICIONA</tspan><tspan x="134.87" y="0">D</tspan><tspan class="cls-7" x="149.21" y="0">A</tspan></text><text class="cls-8" transform="translate(19.08 68.78)">5</text><text class="cls-8" transform="translate(274.72 68.78)">Disponible</text><text class="cls-8" transform="translate(536.81 68.78)">14<tspan class="cls-9" x="15.45" y="0">0.</tspan><tspan x="28.28" y="0">00</tspan></text><text class="cls-8" transform="translate(754.83 68.78)">-</text><text class="cls-8" transform="translate(953.95 68.78)">Si</text><rect class="cls-10" x="0.5" y="0.5" width="1054.17" height="83.52"/><line class="cls-10" x1="0.5" y1="41.85" x2="1054.67" y2="41.85"/><line class="cls-10" x1="174.75" y1="0.93" x2="174.75" y2="84.02"/><line class="cls-10" x1="464.98" y1="1.05" x2="464.98" y2="84.02"/><line class="cls-10" x1="650.83" y1="1.05" x2="650.83" y2="84.02"/><line class="cls-10" x1="864.29" y1="1.05" x2="864.29" y2="84.02"/></g></g></svg>