<svg xmlns="http://www.w3.org/2000/svg" viewBox="0 0 1055.17 284.9"><defs><style>.cls-1{fill:#22b573;opacity:0.3;}.cls-19,.cls-2{font-size:17.05px;font-family:Montserrat-Medium, Montserrat;font-weight:500;}.cls-13,.cls-19,.cls-2,.cls-5{fill:#fff;}.cls-2,.cls-22{letter-spacing:0.02em;}.cls-19,.cls-3{letter-spacing:0.02em;}.cls-4{letter-spacing:0.02em;}.cls-13,.cls-5{font-size:15.35px;font-family:Montserrat-Light, Montserrat;font-weight:300;}.cls-6{letter-spacing:0.01em;}.cls-7{letter-spacing:0em;}.cls-8{letter-spacing:-0.02em;}.cls-9{letter-spacing:0em;}.cls-10{letter-spacing:-0.01em;}.cls-11{letter-spacing:0.01em;}.cls-12{letter-spacing:0em;}.cls-13{letter-spacing:0.02em;}.cls-14{letter-spacing:0em;}.cls-15{letter-spacing:-0.01em;}.cls-16{letter-spacing:0em;}.cls-17{letter-spacing:-0.02em;}.cls-18{letter-spacing:0.02em;}.cls-20{letter-spacing:0.01em;}.cls-21{letter-spacing:0.03em;}.cls-23{fill:none;stroke:#fff;stroke-miterlimit:10;}</style></defs><g id="Capa_2" data-name="Capa 2"><g id="Capa_1-2" data-name="Capa 1"><rect class="cls-1" x="174.75" y="42.28" width="290.23" height="241.7"/><text class="cls-2" transform="translate(15.65 28.71)">UNI<tspan class="cls-3" x="33.9" y="0">D</tspan><tspan class="cls-4" x="48.24" y="0">AD</tspan></text><text class="cls-2" transform="translate(243.81 28.71)">DISPONIBILI<tspan class="cls-3" x="114.02" y="0">D</tspan><tspan x="128.36" y="0">AD</tspan></text><text class="cls-2" transform="translate(545.7 28.71)">M2</text><text class="cls-2" transform="translate(700.64 28.71)">TERRAZA M2</text><text class="cls-5" transform="translate(15.65 72.19)">B G<tspan class="cls-6" x="27.35" y="0">O-</tspan><tspan class="cls-7" x="46.33" y="0">0</tspan><tspan x="56.41" y="0">2</tspan><tspan x="0" y="34.1">B G</tspan><tspan class="cls-6" x="27.35" y="34.1">O-</tspan><tspan x="46.33" y="34.1">04</tspan><tspan x="0" y="68.2">B G</tspan><tspan class="cls-6" x="27.35" y="68.2">O-</tspan><tspan x="46.33" y="68.2">06</tspan><tspan x="0" y="102.31">B G</tspan><tspan class="cls-6" x="27.35" y="102.31">O-</tspan><tspan x="46.33" y="102.31">08</tspan><tspan x="0" y="136.41">B G</tspan><tspan class="cls-6" x="27.35" y="136.41">O</tspan><tspan class="cls-8" x="40.34" y="136.41">-</tspan><tspan class="cls-9" x="45.95" y="136.41">10</tspan><tspan x="0" y="170.51">B G</tspan><tspan class="cls-6" x="27.35" y="170.51">O-</tspan><tspan class="cls-10" x="46.33" y="170.51">0</tspan><tspan x="56.27" y="170.51">3</tspan><tspan x="0" y="204.61">A G</tspan><tspan class="cls-11" x="26.63" y="204.61">O-</tspan><tspan class="cls-12" x="45.61" y="204.61">0</tspan><tspan class="cls-9" x="55.69" y="204.61">1</tspan></text><text class="cls-13" transform="translate(272.83 72.19)">Disponible<tspan x="0" y="51.15">Disponible</tspan><tspan x="0" y="120.21">Disponible</tspan><tspan x="0" y="170.51">Disponible</tspan><tspan x="0" y="204.61">Disponible</tspan></text><text class="cls-5" transform="translate(540.35 72.19)">111.50<tspan class="cls-14" x="-6.86" y="52.01">2</tspan><tspan x="1.72" y="52.01">0</tspan><tspan class="cls-15" x="11.82" y="52.01">0.</tspan><tspan class="cls-16" x="24.65" y="52.01">00</tspan><tspan x="-4.54" y="121.06">1</tspan><tspan class="cls-17" x="0.88" y="121.06">7</tspan><tspan class="cls-15" x="9.49" y="121.06">0.</tspan><tspan class="cls-16" x="22.32" y="121.06">00</tspan><tspan x="-4.17" y="171.36">10</tspan><tspan class="cls-15" x="11.35" y="171.36">9</tspan><tspan x="20.42" y="171.36">.50</tspan><tspan x="-2.58" y="205.47">8</tspan><tspan class="cls-18" x="7.12" y="205.47">4</tspan><tspan class="cls-15" x="17.46" y="205.47">.</tspan><tspan x="20.36" y="205.47">00</tspan></text><text class="cls-5" transform="translate(754.83 72.19)">-<tspan x="0" y="51.15">-</tspan><tspan x="0" y="118.51">-</tspan><tspan x="0" y="168.81">-</tspan><tspan x="0" y="202.91">-</tspan></text><text class="cls-19" transform="translate(879.78 28.71)">A<tspan class="cls-20" x="12.74" y="0">C</tspan><tspan class="cls-21" x="25.24" y="0">ONDICIONA</tspan><tspan x="134.87" y="0">D</tspan><tspan class="cls-22" x="149.21" y="0">A</tspan></text><text class="cls-5" transform="translate(955.07 72.19)">Si<tspan x="0" y="51.15">Si</tspan><tspan x="0" y="118.51">Si</tspan><tspan x="0" y="168.81">Si</tspan><tspan x="0" y="202.91">Si</tspan></text><rect class="cls-23" x="0.5" y="0.5" width="1054.17" height="283.9"/><line class="cls-23" x1="0.5" y1="41.85" x2="1054.15" y2="41.85"/><line class="cls-23" x1="1.02" y1="82.77" x2="1054.67" y2="82.77"/><line class="cls-23" x1="1.02" y1="150.98" x2="1054.67" y2="150.98"/><line class="cls-23" x1="1.02" y1="220.03" x2="1054.67" y2="220.03"/><line class="cls-23" x1="1.02" y1="252.43" x2="1054.67" y2="252.43"/><line class="cls-23" x1="174.75" y1="0.93" x2="174.75" y2="284.4"/><line class="cls-23" x1="464.98" y1="1.35" x2="464.98" y2="284.4"/><line class="cls-23" x1="650.83" y1="1.35" x2="650.83" y2="284.4"/><line class="cls-23" x1="864.29" y1="1.35" x2="864.29" y2="284.4"/></g></g></svg>