<svg xmlns="http://www.w3.org/2000/svg" viewBox="0 0 1054.58 661.25"><defs><style>.cls-1{fill:#22b573;opacity:0.3;}.cls-2,.cls-27{font-size:17.05px;font-family:Montserrat-Medium, Montserrat;font-weight:500;}.cls-15,.cls-2,.cls-27,.cls-5{fill:#fff;}.cls-2,.cls-29{letter-spacing:0.03em;}.cls-27,.cls-3{letter-spacing:0.02em;}.cls-4{letter-spacing:0.02em;}.cls-15,.cls-5{font-size:15.34px;font-family:Montserrat-Light, Montserrat;font-weight:300;}.cls-6{letter-spacing:0em;}.cls-7{letter-spacing:0em;}.cls-8{letter-spacing:-0.01em;}.cls-9{letter-spacing:0em;}.cls-10{letter-spacing:0.01em;}.cls-11{letter-spacing:0em;}.cls-12{letter-spacing:0em;}.cls-13{letter-spacing:-0.01em;}.cls-14{letter-spacing:0.01em;}.cls-15{letter-spacing:0.02em;}.cls-16{letter-spacing:-0.01em;}.cls-17{letter-spacing:-0.01em;}.cls-18{letter-spacing:-0.01em;}.cls-19{letter-spacing:0.02em;}.cls-20{letter-spacing:-0.02em;}.cls-21{letter-spacing:0em;}.cls-22{letter-spacing:0.01em;}.cls-23{letter-spacing:0.01em;}.cls-24{letter-spacing:0.02em;}.cls-25{letter-spacing:0em;}.cls-26{letter-spacing:-0.05em;}.cls-28{letter-spacing:0.01em;}.cls-30{fill:none;stroke:#fff;stroke-miterlimit:10;}</style></defs><g id="Capa_2" data-name="Capa 2"><g id="Capa_1-2" data-name="Capa 1"><rect class="cls-1" x="174.37" y="42.27" width="290.6" height="618.91"/><text class="cls-2" transform="translate(18.66 28.71)">UNI<tspan class="cls-3" x="33.89" y="0">D</tspan><tspan class="cls-4" x="48.23" y="0">AD</tspan></text><text class="cls-2" transform="translate(240.35 28.71)">DISPONIBILI<tspan class="cls-3" x="114.01" y="0">D</tspan><tspan class="cls-4" x="128.35" y="0">AD</tspan></text><text class="cls-2" transform="translate(541.36 28.71)">M2</text><text class="cls-2" transform="translate(699.92 28.71)">TERRAZA M2</text><text class="cls-5" transform="translate(18.66 72.18)"><tspan class="cls-6">2</tspan><tspan class="cls-7" x="8.58" y="0">0</tspan><tspan x="18.66" y="0">1</tspan><tspan class="cls-6" x="0" y="34.1">2</tspan><tspan class="cls-7" x="8.58" y="34.1">0</tspan><tspan x="18.66" y="34.1">2</tspan><tspan class="cls-6"><tspan x="0" y="68.2">2</tspan><tspan class="cls-8" x="8.58" y="68.2">0</tspan><tspan class="cls-9" x="18.52" y="68.2">3</tspan></tspan><tspan class="cls-6" x="0" y="102.3">2</tspan><tspan x="8.58" y="102.3">04</tspan><tspan class="cls-6" x="0" y="136.4">2</tspan><tspan x="8.58" y="136.4">05</tspan><tspan class="cls-6" x="0" y="170.5">2</tspan><tspan x="8.58" y="170.5">06</tspan><tspan x="0" y="204.6">P</tspan><tspan class="cls-10" x="10.97" y="204.6">O-</tspan><tspan class="cls-11" x="29.95" y="204.6">0</tspan><tspan class="cls-12" x="40.03" y="204.6">1</tspan><tspan x="0" y="238.7">P</tspan><tspan class="cls-10" x="10.97" y="238.7">O-</tspan><tspan class="cls-11" x="29.95" y="238.7">0</tspan><tspan class="cls-12" x="40.03" y="238.7">2</tspan><tspan x="0" y="272.8">P</tspan><tspan class="cls-10" x="10.97" y="272.8">O-</tspan><tspan class="cls-13" x="29.95" y="272.8">0</tspan><tspan x="39.9" y="272.8">3</tspan><tspan x="0" y="306.9">P</tspan><tspan class="cls-10" x="10.97" y="306.9">O-</tspan><tspan x="29.95" y="306.9">04</tspan><tspan x="0" y="340.99">P</tspan><tspan class="cls-10" x="10.97" y="340.99">O-</tspan><tspan x="29.95" y="340.99">05</tspan><tspan x="0" y="375.09">RG</tspan><tspan class="cls-14" x="22.91" y="375.09">-</tspan><tspan class="cls-7" x="28.89" y="375.09">0</tspan><tspan x="38.98" y="375.09">1</tspan><tspan x="0" y="409.19">3</tspan><tspan class="cls-7" x="8.56" y="409.19">0</tspan><tspan x="18.64" y="409.19">1</tspan><tspan x="0" y="443.29">3</tspan><tspan class="cls-7" x="8.56" y="443.29">0</tspan><tspan x="18.64" y="443.29">2</tspan><tspan x="0" y="477.39">3</tspan><tspan class="cls-8" x="8.56" y="477.39">0</tspan><tspan class="cls-9" x="18.51" y="477.39">3</tspan><tspan x="0" y="511.49">304</tspan><tspan x="0" y="545.59">305</tspan><tspan x="0" y="579.69">306</tspan></text><text class="cls-15" transform="translate(273.63 72.18)">Disponible<tspan x="0" y="34.1">Disponible</tspan><tspan x="0" y="68.2">Disponible</tspan><tspan x="0" y="102.3">Disponible</tspan><tspan x="0" y="136.4">Disponible</tspan><tspan x="0" y="170.5">Disponible</tspan><tspan x="0" y="204.6">Disponible</tspan><tspan x="0" y="238.7">Disponible</tspan><tspan x="0" y="272.8">Disponible</tspan><tspan x="0" y="306.9">Disponible</tspan><tspan x="0" y="340.99">Disponible</tspan><tspan x="0" y="375.09">Disponible</tspan><tspan x="0" y="409.19">Disponible</tspan><tspan x="0" y="443.29">Disponible</tspan><tspan x="0" y="477.39">Disponible</tspan><tspan x="0" y="511.49">Disponible</tspan><tspan x="0" y="545.59">Disponible</tspan><tspan x="0" y="579.69">Disponible</tspan></text><text class="cls-5" transform="translate(533.93 72.18)"><tspan class="cls-16">7</tspan><tspan x="8.78" y="0">3</tspan><tspan class="cls-17" x="17.34" y="0">.</tspan><tspan x="20.24" y="0">00</tspan><tspan x="-1.14" y="34.1">8</tspan><tspan class="cls-18" x="8.55" y="34.1">0.</tspan><tspan x="21.38" y="34.1">00</tspan><tspan class="cls-7" x="1.35" y="68.2">9</tspan><tspan x="10.57" y="68.2">1</tspan><tspan class="cls-18" x="15.99" y="68.2">.</tspan><tspan x="18.89" y="68.2">00</tspan><tspan x="-3.42" y="102.3">13</tspan><tspan class="cls-19" x="10.56" y="102.3">4</tspan><tspan class="cls-20" x="20.9" y="102.3">.</tspan><tspan x="23.72" y="102.3">40</tspan><tspan x="-1.99" y="136.4">1</tspan><tspan class="cls-21" x="3.42" y="136.4">3</tspan><tspan class="cls-22" x="11.91" y="136.4">2</tspan><tspan x="20.7" y="136.4">.50</tspan><tspan x="-3.28" y="170.5">15</tspan><tspan class="cls-18" x="10.7" y="170.5">0.</tspan><tspan x="23.52" y="170.5">00</tspan><tspan class="cls-7" x="-0.34" y="204.6">9</tspan><tspan class="cls-23" x="8.88" y="204.6">2</tspan><tspan class="cls-17" x="17.68" y="204.6">.</tspan><tspan x="20.58" y="204.6">00</tspan><tspan x="0.45" y="238.7">63.50</tspan><tspan x="-0.64" y="272.8">9</tspan><tspan class="cls-23" x="8.59" y="272.8">6</tspan><tspan class="cls-18" x="17.98" y="272.8">.</tspan><tspan x="20.88" y="272.8">00</tspan><tspan x="-2.68" y="306.9">1</tspan><tspan class="cls-21" x="2.74" y="306.9">3</tspan><tspan class="cls-22" x="11.23" y="306.9">2</tspan><tspan class="cls-18" x="20.02" y="306.9">.</tspan><tspan x="22.92" y="306.9">00</tspan><tspan x="-3.37" y="340.99">105</tspan><tspan class="cls-18" x="20.71" y="340.99">.</tspan><tspan x="23.61" y="340.99">00</tspan><tspan x="-0.46" y="375.09">85</tspan><tspan class="cls-17" x="17.8" y="375.09">.</tspan><tspan x="20.7" y="375.09">00</tspan><tspan class="cls-16" x="0" y="409.19">7</tspan><tspan x="8.78" y="409.19">3</tspan><tspan class="cls-17" x="17.34" y="409.19">.</tspan><tspan x="20.24" y="409.19">00</tspan><tspan x="-1.14" y="443.29">8</tspan><tspan class="cls-18" x="8.55" y="443.29">0.</tspan><tspan x="21.38" y="443.29">00</tspan><tspan class="cls-7" x="1.35" y="477.39">9</tspan><tspan x="10.57" y="477.39">1</tspan><tspan class="cls-18" x="15.99" y="477.39">.</tspan><tspan x="18.89" y="477.39">00</tspan><tspan x="-2.81" y="511.49">13</tspan><tspan class="cls-24" x="11.17" y="511.49">4</tspan><tspan x="21.51" y="511.49">.50</tspan><tspan x="-1.99" y="545.59">1</tspan><tspan class="cls-21" x="3.42" y="545.59">3</tspan><tspan class="cls-22" x="11.91" y="545.59">2</tspan><tspan x="20.7" y="545.59">.50</tspan><tspan x="-3.28" y="579.69">15</tspan><tspan class="cls-18" x="10.7" y="579.69">0.</tspan><tspan x="23.52" y="579.69">00</tspan></text><text class="cls-5" transform="translate(753.26 72.18)">-<tspan x="0" y="34.1">-</tspan><tspan x="0" y="68.2">-</tspan><tspan x="0" y="102.3">-</tspan><tspan x="0" y="136.4">-</tspan><tspan x="0" y="170.5">-</tspan><tspan x="-17.44" y="204.6">5</tspan><tspan class="cls-18" x="-8.88" y="204.6">9.</tspan><tspan x="3.09" y="204.6">00</tspan><tspan class="cls-25" x="-16.96" y="238.7">2</tspan><tspan class="cls-26" x="-8.38" y="238.7">7</tspan><tspan class="cls-18" x="-0.29" y="238.7">.</tspan><tspan x="2.61" y="238.7">00</tspan><tspan x="-16.92" y="272.8">3</tspan><tspan class="cls-23" x="-8.35" y="272.8">6</tspan><tspan x="1.04" y="272.8">.50</tspan><tspan x="-17.6" y="306.9">3</tspan><tspan class="cls-23" x="-9.04" y="306.9">6</tspan><tspan class="cls-18" x="0.35" y="306.9">.</tspan><tspan x="3.25" y="306.9">00</tspan><tspan x="-18.81" y="340.99">4</tspan><tspan class="cls-24" x="-8.78" y="340.99">4</tspan><tspan class="cls-18" x="1.57" y="340.99">.</tspan><tspan x="4.47" y="340.99">00</tspan><tspan x="0" y="375.09">-</tspan><tspan x="0" y="409.19">-</tspan><tspan x="0" y="443.29">-</tspan><tspan x="0" y="477.39">-</tspan><tspan x="0" y="511.49">-</tspan><tspan x="0" y="545.59">-</tspan><tspan x="0" y="579.69">-</tspan></text><text class="cls-27" transform="translate(877.52 28.71)">A<tspan class="cls-28" x="12.74" y="0">C</tspan><tspan class="cls-29" x="25.23" y="0">ONDICIONA</tspan><tspan x="134.86" y="0">D</tspan><tspan class="cls-29" x="149.2" y="0">A</tspan></text><text class="cls-5" transform="translate(943.78 72.18)">No<tspan x="0" y="34.1">No</tspan><tspan x="0" y="68.2">No</tspan><tspan x="0" y="102.3">No</tspan><tspan x="0" y="136.4">No</tspan><tspan x="0" y="170.5">No</tspan><tspan x="0" y="204.6">No</tspan><tspan x="0" y="238.7">No</tspan><tspan x="0" y="272.8">No</tspan><tspan x="0" y="306.9">No</tspan><tspan x="0" y="340.99">No</tspan><tspan x="0" y="375.09">No</tspan><tspan x="0" y="409.19">No</tspan><tspan x="0" y="443.29">No</tspan><tspan x="0" y="477.39">No</tspan><tspan x="0" y="511.49">No</tspan><tspan x="0" y="545.59">No</tspan><tspan x="0" y="579.69">No</tspan></text><rect class="cls-30" x="0.5" y="0.5" width="1053.58" height="660.25"/><line class="cls-30" x1="0.07" y1="41.85" x2="1053.57" y2="41.85"/><line class="cls-30" x1="0.59" y1="82.76" x2="1054.08" y2="82.76"/><line class="cls-30" x1="0.59" y1="116.01" x2="1054.08" y2="116.01"/><line class="cls-30" x1="0.59" y1="150.96" x2="1054.08" y2="150.96"/><line class="cls-30" x1="0.59" y1="185.06" x2="1054.08" y2="185.06"/><line class="cls-30" x1="0.59" y1="220.02" x2="1054.08" y2="220.02"/><line class="cls-30" x1="0.59" y1="252.41" x2="1054.08" y2="252.41"/><line class="cls-30" x1="0.59" y1="287.36" x2="1054.08" y2="287.36"/><line class="cls-30" x1="0.59" y1="320.61" x2="1054.08" y2="320.61"/><line class="cls-30" x1="0.59" y1="354.71" x2="1054.08" y2="354.71"/><line class="cls-30" x1="0.59" y1="390.51" x2="1054.08" y2="390.51"/><line class="cls-30" x1="0.59" y1="422.91" x2="1054.08" y2="422.91"/><line class="cls-30" x1="0.59" y1="457.01" x2="1054.08" y2="457.01"/><line class="cls-30" x1="0.59" y1="491.11" x2="1054.08" y2="491.11"/><line class="cls-30" x1="0.59" y1="526.06" x2="1054.08" y2="526.06"/><line class="cls-30" x1="0.59" y1="559.31" x2="1054.08" y2="559.31"/><line class="cls-30" x1="0.59" y1="593.4" x2="1054.08" y2="593.4"/><line class="cls-30" x1="0.59" y1="627.5" x2="1054.08" y2="627.5"/><line class="cls-30" x1="174.37" y1="0.93" x2="174.37" y2="660.75"/><line class="cls-30" x1="464.97" y1="1.35" x2="464.97" y2="661.18"/><line class="cls-30" x1="650.12" y1="1.35" x2="650.12" y2="661.18"/><line class="cls-30" x1="863.58" y1="1.35" x2="863.58" y2="661.18"/></g></g></svg>