<svg xmlns="http://www.w3.org/2000/svg" viewBox="0 0 1054.75 81.99"><defs><style>.cls-1{fill:#22b573;opacity:0.3;}.cls-13,.cls-2{font-size:17.05px;font-family:Montserrat-Medium, Montserrat;font-weight:500;}.cls-13,.cls-2,.cls-5{fill:#fff;}.cls-16,.cls-2{letter-spacing:0.02em;}.cls-13,.cls-3{letter-spacing:0.02em;}.cls-4{letter-spacing:0.02em;}.cls-5{font-size:15.35px;font-family:Montserrat-Light, Montserrat;font-weight:300;}.cls-6{letter-spacing:-0.02em;}.cls-7{letter-spacing:0.01em;}.cls-8{letter-spacing:0em;}.cls-9{letter-spacing:0.01em;}.cls-10{letter-spacing:-0.01em;}.cls-11{letter-spacing:0em;}.cls-12{letter-spacing:-0.01em;}.cls-14{letter-spacing:0.01em;}.cls-15{letter-spacing:0.03em;}.cls-17{fill:none;stroke:#fff;stroke-miterlimit:10;}</style></defs><g id="Capa_2" data-name="Capa 2"><g id="Capa_1-2" data-name="Capa 1"><rect class="cls-1" x="174.32" y="42.28" width="290.73" height="38.79"/><text class="cls-2" transform="translate(18.66 28.71)">UNI<tspan class="cls-3" x="33.9" y="0">D</tspan><tspan class="cls-4" x="48.24" y="0">AD</tspan></text><text class="cls-2" transform="translate(245.26 28.71)">DISPONIBILI<tspan class="cls-3" x="114.02" y="0">D</tspan><tspan x="128.36" y="0">AD</tspan></text><text class="cls-2" transform="translate(546.98 28.71)">M2</text><text class="cls-2" transform="translate(700.44 28.71)">TERRAZA M2</text><text class="cls-5" transform="translate(18.66 67.93)"><tspan class="cls-6">L</tspan><tspan class="cls-7" x="8.73" y="0">-</tspan><tspan class="cls-8" x="14.72" y="0">0</tspan><tspan x="24.8" y="0">2</tspan></text><text class="cls-5" transform="translate(274.3 67.93)">Disponible</text><text class="cls-5" transform="translate(536.62 67.93)">10<tspan class="cls-9" x="15.51" y="0">6</tspan><tspan class="cls-10" x="24.91" y="0">.</tspan><tspan x="27.81" y="0">00</tspan></text><text class="cls-5" transform="translate(730.79 67.93)"><tspan class="cls-11">2</tspan><tspan class="cls-12" x="8.58" y="0">0.</tspan><tspan x="21.41" y="0">00</tspan></text><text class="cls-13" transform="translate(877.05 28.71)">A<tspan class="cls-14" x="12.74" y="0">C</tspan><tspan class="cls-15" x="25.24" y="0">ONDICIONA</tspan><tspan x="134.87" y="0">D</tspan><tspan class="cls-16" x="149.21" y="0">A</tspan></text><text class="cls-5" transform="translate(946.32 67.93)">No</text><rect class="cls-17" x="0.5" y="0.5" width="1053.75" height="80.99"/><line class="cls-17" x1="0.07" y1="41.85" x2="1054.25" y2="41.85"/><line class="cls-17" x1="174.32" y1="0.93" x2="174.32" y2="81.07"/><line class="cls-17" x1="465.05" y1="1.05" x2="465.05" y2="81.07"/><line class="cls-17" x1="465.05" y1="1.05" x2="465.05" y2="81.07"/><line class="cls-17" x1="649.95" y1="1.05" x2="649.95" y2="81.07"/><line class="cls-17" x1="863.41" y1="1.05" x2="863.41" y2="81.07"/></g></g></svg>