<svg xmlns="http://www.w3.org/2000/svg" viewBox="0 0 1055.59 184.33"><defs><style>.cls-1{fill:#22b573;opacity:0.3;}.cls-2,.cls-5{font-size:17.05px;font-family:Montserrat-Medium, Montserrat;font-weight:500;}.cls-2,.cls-5,.cls-8{fill:#fff;}.cls-2,.cls-7{letter-spacing:0.02em;}.cls-3,.cls-5{letter-spacing:0.02em;}.cls-4{letter-spacing:0.02em;}.cls-6{letter-spacing:0.01em;}.cls-8{font-size:15.35px;font-family:Montserrat-Light, Montserrat;font-weight:300;}.cls-9{letter-spacing:-0.02em;}.cls-10{letter-spacing:0.01em;}.cls-11{letter-spacing:0em;}.cls-12{letter-spacing:0em;}.cls-13{letter-spacing:-0.03em;}.cls-14{letter-spacing:-0.04em;}.cls-15{letter-spacing:-0.03em;}.cls-16{letter-spacing:0.01em;}.cls-17{letter-spacing:-0.01em;}.cls-18{fill:none;stroke:#fff;stroke-miterlimit:10;}</style></defs><g id="Capa_2" data-name="Capa 2"><g id="Capa_1-2" data-name="Capa 1"><rect class="cls-1" x="175.07" y="42.28" width="290.27" height="141.12"/><text class="cls-2" transform="translate(18.66 28.71)">UNI<tspan class="cls-3" x="33.9" y="0">D</tspan><tspan x="48.24" y="0">AD</tspan></text><text class="cls-2" transform="translate(239.19 28.71)">DISPONIBILI<tspan class="cls-4" x="114.04" y="0">D</tspan><tspan x="128.38" y="0">AD</tspan></text><text class="cls-2" transform="translate(546.92 28.71)">M2</text><text class="cls-2" transform="translate(696.76 28.71)">TERRAZA M2</text><text class="cls-5" transform="translate(881.18 28.71)">A<tspan class="cls-6" x="12.74" y="0">C</tspan><tspan class="cls-7" x="25.24" y="0">ONDICIONA</tspan><tspan class="cls-4" x="134.89" y="0">D</tspan><tspan class="cls-7" x="149.23" y="0">A</tspan></text><text class="cls-8" transform="translate(18.66 72.2)"><tspan class="cls-9">L<tspan class="cls-10" x="8.73" y="0">-</tspan><tspan class="cls-11" x="14.72" y="0">0</tspan><tspan class="cls-12" x="24.8" y="0">2</tspan></tspan><tspan class="cls-13" x="0" y="34.11">4</tspan><tspan x="9.65" y="34.11">10</tspan><tspan class="cls-13" x="0" y="68.21">4</tspan><tspan x="9.65" y="68.21">11</tspan><tspan class="cls-14"><tspan x="0" y="102.32">C</tspan><tspan class="cls-15" x="10.31" y="102.32">ajón #117</tspan></tspan></text><text class="cls-8" transform="translate(275.05 72.2)">Disponible<tspan x="0" y="34.11">Disponible</tspan><tspan x="0" y="68.21">Disponible</tspan><tspan x="0" y="102.32">Disponible</tspan></text><text class="cls-8" transform="translate(538.29 72.2)">6<tspan class="cls-16" x="9.24" y="0">2</tspan><tspan class="cls-17" x="18.03" y="0">.</tspan><tspan x="20.93" y="0">00</tspan><tspan x="2.14" y="34.11">81.50</tspan><tspan x="2.14" y="68.21">81.50</tspan><tspan x="17.64" y="102.32">-</tspan></text><text class="cls-8" transform="translate(755.23 72.2)">-<tspan x="0" y="34.11">-</tspan><tspan x="0" y="68.21">-</tspan><tspan x="0" y="102.32">-</tspan></text><text class="cls-8" transform="translate(953.22 72.2)">SI<tspan x="0" y="34.11">SI</tspan><tspan x="0" y="68.21">SI</tspan><tspan x="4.01" y="102.32">-</tspan></text><rect class="cls-18" x="0.5" y="0.5" width="1054.59" height="183.33"/><line class="cls-18" x1="0.07" y1="41.85" x2="1054.57" y2="41.85"/><line class="cls-18" x1="0.59" y1="82.78" x2="1055.09" y2="82.78"/><line class="cls-18" x1="0.59" y1="116.04" x2="1055.09" y2="116.04"/><line class="cls-18" x1="0.59" y1="151" x2="1055.09" y2="151"/><line class="cls-18" x1="175.07" y1="0.93" x2="175.07" y2="183.4"/><line class="cls-18" x1="465.34" y1="1.2" x2="465.34" y2="183.4"/><line class="cls-18" x1="650.99" y1="1.2" x2="650.99" y2="183.4"/><line class="cls-18" x1="864.45" y1="1.2" x2="864.45" y2="183.4"/></g></g></svg>