<svg xmlns="http://www.w3.org/2000/svg" viewBox="0 0 1054.75 354.81"><defs><style>.cls-1{fill:#22b573;opacity:0.3;}.cls-2,.cls-21{font-size:17.05px;font-family:Montserrat-Medium, Montserrat;font-weight:500;}.cls-2,.cls-21,.cls-5{fill:#fff;}.cls-2,.cls-24{letter-spacing:0.02em;}.cls-21,.cls-3{letter-spacing:0.02em;}.cls-4{letter-spacing:0.02em;}.cls-5{font-size:15.35px;font-family:Montserrat-Light, Montserrat;font-weight:300;}.cls-6{letter-spacing:-0.02em;}.cls-7{letter-spacing:0.01em;}.cls-8{letter-spacing:0em;}.cls-9{letter-spacing:0em;}.cls-10{letter-spacing:-0.01em;}.cls-11{letter-spacing:-0.02em;}.cls-12{letter-spacing:0.01em;}.cls-13{letter-spacing:-0.01em;}.cls-14{letter-spacing:0em;}.cls-15{letter-spacing:-0.01em;}.cls-16{letter-spacing:0.01em;}.cls-17{letter-spacing:-0.07em;}.cls-18{letter-spacing:0.02em;}.cls-19{letter-spacing:-0.02em;}.cls-20{letter-spacing:0em;}.cls-22{letter-spacing:0.01em;}.cls-23{letter-spacing:0.03em;}.cls-25{fill:none;stroke:#fff;stroke-miterlimit:10;}</style></defs><g id="Capa_2" data-name="Capa 2"><g id="Capa_1-2" data-name="Capa 1"><rect class="cls-1" x="174.32" y="42.28" width="290.23" height="312.46"/><text class="cls-2" transform="translate(18.66 28.71)">UNI<tspan class="cls-3" x="33.9" y="0">D</tspan><tspan class="cls-4" x="48.24" y="0">AD</tspan></text><text class="cls-2" transform="translate(240.6 28.71)">DISPONIBILI<tspan class="cls-3" x="114.02" y="0">D</tspan><tspan x="128.36" y="0">AD</tspan></text><text class="cls-2" transform="translate(547.83 28.71)">M2</text><text class="cls-2" transform="translate(701.91 28.71)">TERRAZA M2</text><text class="cls-5" transform="translate(18.66 72.19)">406<tspan class="cls-6" x="0" y="34.1">L</tspan><tspan class="cls-7" x="8.73" y="34.1">-</tspan><tspan class="cls-8" x="14.72" y="34.1">0</tspan><tspan x="24.8" y="34.1">1</tspan><tspan x="0" y="68.2">G</tspan><tspan class="cls-7" x="11.86" y="68.2">O-</tspan><tspan class="cls-9" x="30.84" y="68.2">0</tspan><tspan x="40.93" y="68.2">1</tspan><tspan x="0" y="102.31">G</tspan><tspan class="cls-7" x="11.86" y="102.31">O-</tspan><tspan class="cls-10" x="30.84" y="102.31">0</tspan><tspan x="40.79" y="102.31">3</tspan><tspan x="0" y="136.41">G</tspan><tspan class="cls-7" x="11.86" y="136.41">O-</tspan><tspan x="30.84" y="136.41">05</tspan><tspan x="0" y="170.51">4</tspan><tspan class="cls-9" x="10.04" y="170.51">0</tspan><tspan x="20.12" y="170.51">1</tspan><tspan x="0" y="204.61">4</tspan><tspan class="cls-9" x="10.04" y="204.61">0</tspan><tspan x="20.12" y="204.61">2</tspan><tspan x="0" y="238.72">P</tspan><tspan class="cls-7" x="10.97" y="238.72">O-</tspan><tspan x="29.95" y="238.72">09</tspan><tspan x="0" y="272.82">G</tspan><tspan class="cls-7" x="11.86" y="272.82">O-</tspan><tspan class="cls-9" x="30.84" y="272.82">0</tspan><tspan x="40.93" y="272.82">2</tspan></text><text class="cls-5" transform="translate(276.46 70.49)">Disponible<tspan x="0" y="84.4">Disponible</tspan><tspan x="0" y="188.42">Disponible</tspan><tspan x="0" y="239.57">Disponible</tspan><tspan x="0" y="273.67">Disponible</tspan></text><text class="cls-5" transform="translate(536.42 72.19)"><tspan class="cls-11">7<tspan class="cls-12" x="8.62" y="0">8</tspan><tspan class="cls-13" x="18.48" y="0">.</tspan><tspan class="cls-14" x="21.38" y="0">00</tspan></tspan><tspan x="-2.36" y="86.96">3</tspan><tspan class="cls-9" x="6.2" y="86.96">9</tspan><tspan x="15.42" y="86.96">1</tspan><tspan class="cls-15" x="20.84" y="86.96">.</tspan><tspan x="23.74" y="86.96">00</tspan><tspan x="1.67" y="187.56">23</tspan><tspan class="cls-16" x="18.88" y="187.56">6</tspan><tspan class="cls-14" x="28.27" y="187.56">.5</tspan><tspan class="cls-17"><tspan x="0.79" y="239.57">7</tspan><tspan class="cls-18" x="8.71" y="239.57">4</tspan><tspan class="cls-14" x="19.05" y="239.57">.50</tspan></tspan><tspan class="cls-19" x="0.92" y="273.67">7</tspan><tspan class="cls-12" x="9.53" y="273.67">6</tspan><tspan x="18.92" y="273.67">.50</tspan></text><text class="cls-5" transform="translate(750.14 72.19)">-<tspan class="cls-20" x="-17.15" y="85.26">3</tspan><tspan x="-8.66" y="85.26">3</tspan><tspan class="cls-13" x="-0.1" y="85.26">.</tspan><tspan class="cls-14" x="2.8" y="85.26">00</tspan><tspan x="0" y="187.56">-</tspan><tspan x="0" y="237.86">-</tspan><tspan x="-15.73" y="273.67">1</tspan><tspan class="cls-16" x="-10.31" y="273.67">2</tspan><tspan class="cls-13" x="-1.52" y="273.67">.</tspan><tspan class="cls-14" x="1.38" y="273.67">00</tspan></text><text class="cls-21" transform="translate(879.35 28.71)">A<tspan class="cls-22" x="12.74" y="0">C</tspan><tspan class="cls-23" x="25.24" y="0">ONDICIONA</tspan><tspan x="134.87" y="0">D</tspan><tspan class="cls-24" x="149.21" y="0">A</tspan></text><text class="cls-5" transform="translate(952.65 72.19)">Si<tspan x="0" y="85.26">Si</tspan><tspan x="0" y="187.56">Si</tspan><tspan x="-4.33" y="237.86">No</tspan><tspan x="0" y="273.67">Si</tspan></text><rect class="cls-25" x="0.5" y="0.5" width="1053.75" height="353.81"/><line class="cls-25" x1="0.07" y1="41.85" x2="1053.73" y2="41.85"/><line class="cls-25" x1="0.59" y1="82.77" x2="1054.25" y2="82.77"/><line class="cls-25" x1="0.59" y1="220.03" x2="1054.25" y2="220.03"/><line class="cls-25" x1="0.59" y1="287.38" x2="1054.25" y2="287.38"/><line class="cls-25" x1="0.59" y1="320.63" x2="1054.25" y2="320.63"/><line class="cls-25" x1="174.32" y1="0.93" x2="174.32" y2="354.51"/><line class="cls-25" x1="464.55" y1="1.16" x2="464.55" y2="354.74"/><line class="cls-25" x1="650.9" y1="1.16" x2="650.9" y2="354.74"/><line class="cls-25" x1="864.36" y1="1.16" x2="864.36" y2="354.74"/></g></g></svg>